<svg width="15" height="18" viewBox="0 0 15 18" fill="none" xmlns="http://www.w3.org/2000/svg">
<path d="M7.12152 9.9C6.88543 9.9 6.65901 9.99482 6.49206 10.1636C6.32512 10.3324 6.23133 10.5613 6.23133 10.8V13.5C6.23133 13.7387 6.32512 13.9676 6.49206 14.1364C6.65901 14.3052 6.88543 14.4 7.12152 14.4C7.35761 14.4 7.58404 14.3052 7.75098 14.1364C7.91792 13.9676 8.01171 13.7387 8.01171 13.5V10.8C8.01171 10.5613 7.91792 10.3324 7.75098 10.1636C7.58404 9.99482 7.35761 9.9 7.12152 9.9ZM11.5725 6.3V4.5C11.5725 3.30653 11.1035 2.16193 10.2688 1.31802C9.4341 0.474106 8.30199 0 7.12152 0C5.94106 0 4.80894 0.474106 3.97422 1.31802C3.13951 2.16193 2.67057 3.30653 2.67057 4.5V6.3C1.96229 6.3 1.28302 6.58446 0.782192 7.09081C0.281363 7.59716 0 8.28392 0 9V15.3C0 16.0161 0.281363 16.7028 0.782192 17.2092C1.28302 17.7155 1.96229 18 2.67057 18H11.5725C12.2808 18 12.96 17.7155 13.4609 17.2092C13.9617 16.7028 14.243 16.0161 14.243 15.3V9C14.243 8.28392 13.9617 7.59716 13.4609 7.09081C12.96 6.58446 12.2808 6.3 11.5725 6.3ZM4.45095 4.5C4.45095 3.78392 4.73231 3.09716 5.23314 2.59081C5.73397 2.08446 6.41324 1.8 7.12152 1.8C7.8298 1.8 8.50907 2.08446 9.0099 2.59081C9.51073 3.09716 9.79209 3.78392 9.79209 4.5V6.3H4.45095V4.5ZM12.4627 15.3C12.4627 15.5387 12.3689 15.7676 12.2019 15.9364C12.035 16.1052 11.8086 16.2 11.5725 16.2H2.67057C2.43448 16.2 2.20805 16.1052 2.04111 15.9364C1.87417 15.7676 1.78038 15.5387 1.78038 15.3V9C1.78038 8.7613 1.87417 8.53239 2.04111 8.3636C2.20805 8.19482 2.43448 8.1 2.67057 8.1H11.5725C11.8086 8.1 12.035 8.19482 12.2019 8.3636C12.3689 8.53239 12.4627 8.7613 12.4627 9V15.3Z" fill="#6E3B29"/>
</svg>
